<svg id="visual" viewBox="0 0 960 540" width="960" height="540" xmlns="http://www.w3.org/2000/svg" xmlns:xlink="http://www.w3.org/1999/xlink" version="1.1"><rect x="0" y="0" width="960" height="540" fill="#002233"></rect><path d="M0 140L22.8 140.8C45.7 141.7 91.3 143.3 137 136.5C182.7 129.7 228.3 114.3 274 104.5C319.7 94.7 365.3 90.3 411.2 97.5C457 104.7 503 123.3 548.8 139.2C594.7 155 640.3 168 686 164.2C731.7 160.3 777.3 139.7 823 135.2C868.7 130.7 914.3 142.3 937.2 148.2L960 154L960 0L937.2 0C914.3 0 868.7 0 823 0C777.3 0 731.7 0 686 0C640.3 0 594.7 0 548.8 0C503 0 457 0 411.2 0C365.3 0 319.7 0 274 0C228.3 0 182.7 0 137 0C91.3 0 45.7 0 22.8 0L0 0Z" fill="#FF0066" stroke-linecap="round" stroke-linejoin="miter"></path></svg>