<svg width="225" height="40" viewBox="0 0 225 40" fill="none" xmlns="http://www.w3.org/2000/svg">
<path d="M30.584 29.976C30.968 30.904 31.512 31.8 32.216 32.664C32.92 33.496 33.528 34.12 34.04 34.536C33.272 36.136 32.328 37.304 31.208 38.04C30.28 38.648 29.288 39 28.232 39.096C27.656 39.16 27 39.112 26.264 38.952C25.528 38.792 24.76 38.344 23.96 37.608C23.192 36.84 22.424 35.624 21.656 33.96C21.432 33.416 20.936 33.032 20.168 32.808C19.4 32.584 18.584 32.456 17.72 32.424C16.856 32.36 16.152 32.328 15.608 32.328C15.064 32.328 14.392 32.344 13.592 32.376C12.824 32.408 12.12 32.536 11.48 32.76C10.84 32.984 10.456 33.384 10.328 33.96C10.2 34.472 10.184 35 10.28 35.544C10.376 36.088 10.584 36.44 10.904 36.6C10.36 37.112 9.816 37.56 9.272 37.944C8.76 38.328 8.232 38.632 7.688 38.856C7.016 39.144 6.312 39.288 5.576 39.288C4.872 39.288 4.072 39.128 3.176 38.808C2.76 38.648 2.328 38.36 1.88 37.944C1.432 37.528 1.128 36.952 0.968 36.216C0.808 35.48 0.936 34.552 1.352 33.432C1.384 33.336 1.544 32.824 1.832 31.896C2.12 30.968 2.488 29.752 2.936 28.248C3.416 26.712 3.928 25.016 4.472 23.16C5.048 21.304 5.624 19.4 6.2 17.448C6.808 15.464 7.384 13.56 7.928 11.736C8.504 9.912 9.016 8.264 9.464 6.792C9.912 5.32 10.264 4.152 10.52 3.288C10.776 2.424 10.904 1.992 10.904 1.992C11.192 1.832 11.72 1.64 12.488 1.416C13.288 1.16 14.136 1.016 15.032 0.983997C16.024 0.919998 16.984 1.048 17.912 1.368C18.872 1.688 19.608 2.328 20.12 3.288C20.344 3.672 20.68 4.408 21.128 5.496C21.576 6.584 22.104 7.896 22.712 9.432C23.32 10.968 23.96 12.616 24.632 14.376C25.304 16.104 25.96 17.832 26.6 19.56C27.272 21.256 27.88 22.84 28.424 24.312C28.968 25.784 29.432 27.032 29.816 28.056C30.2 29.048 30.456 29.688 30.584 29.976ZM15.464 23.784C16.296 23.72 16.776 23.48 16.904 23.064C17.064 22.648 17.16 22.168 17.192 21.624C17.192 21.272 17.128 20.84 17 20.328C16.904 19.816 16.744 19.368 16.52 18.984C16.328 18.568 16.072 18.36 15.752 18.36C15.304 18.36 14.808 18.68 14.264 19.32C13.752 19.928 13.464 20.552 13.4 21.192C13.304 21.8 13.352 22.392 13.544 22.968C13.768 23.544 14.408 23.816 15.464 23.784ZM53.2175 0.551997C55.1055 0.551997 56.9135 0.887998 58.6415 1.56C60.4015 2.2 61.8735 3.064 63.0575 4.152C64.2735 5.24 64.9935 6.408 65.2175 7.656C65.3775 8.488 65.2655 9.416 64.8815 10.44C64.4975 11.432 63.8895 12.312 63.0575 13.08C62.2255 13.816 61.2175 14.216 60.0335 14.28C59.6175 14.28 59.0895 14.232 58.4495 14.136C57.8095 14.04 57.1855 13.848 56.5775 13.56C56.0015 13.272 55.5375 12.856 55.1855 12.312C55.6655 12.056 55.9855 11.784 56.1455 11.496C56.3055 11.208 56.3535 10.92 56.2895 10.632C56.1615 9.992 55.7775 9.464 55.1375 9.048C54.5295 8.632 53.7775 8.376 52.8815 8.28C52.3695 8.216 51.7775 8.232 51.1055 8.328C50.4335 8.392 49.8095 8.616 49.2335 9C48.6895 9.352 48.3055 9.944 48.0815 10.776C47.9535 11.256 47.9695 11.784 48.1295 12.36C48.3215 12.904 48.7695 13.432 49.4735 13.944C50.1775 14.424 51.2495 14.84 52.6895 15.192C54.8975 15.704 56.9455 16.264 58.8335 16.872C60.7535 17.48 62.4335 18.232 63.8735 19.128C65.3135 20.024 66.4175 21.144 67.1855 22.488C67.9855 23.8 68.3535 25.448 68.2895 27.432C68.2575 28.744 67.9055 30.12 67.2335 31.56C66.5615 33 65.5855 34.344 64.3055 35.592C63.0255 36.808 61.4575 37.8 59.6015 38.568C57.7455 39.336 55.6335 39.72 53.2655 39.72C51.7615 39.72 50.2095 39.592 48.6095 39.336C47.0095 39.08 45.4895 38.68 44.0495 38.136C42.6415 37.592 41.3935 36.872 40.3055 35.976C39.3455 35.144 38.6575 34.104 38.2415 32.856C37.8575 31.608 37.7775 30.36 38.0015 29.112C38.2255 27.832 38.7855 26.744 39.6815 25.848C40.6095 24.952 41.8895 24.456 43.5215 24.36C43.2015 25.32 43.3775 26.264 44.0495 27.192C44.7535 28.088 45.7935 28.856 47.1695 29.496C48.5455 30.104 50.0495 30.472 51.6815 30.6C53.3775 30.728 54.8495 30.664 56.0975 30.408C57.3775 30.152 58.0815 29.624 58.2095 28.824C58.3695 27.864 58.1775 27.096 57.6335 26.52C57.0895 25.944 56.3375 25.512 55.3775 25.224C54.4175 24.904 53.3775 24.648 52.2575 24.456C51.1375 24.232 50.0975 24.008 49.1375 23.784C47.8575 23.432 46.5615 22.984 45.2495 22.44C43.9695 21.864 42.7855 21.144 41.6975 20.28C40.6415 19.416 39.7775 18.36 39.1055 17.112C38.4335 15.864 38.0815 14.408 38.0495 12.744C38.0175 10.792 38.4175 9.064 39.2495 7.56C40.0815 6.024 41.2175 4.744 42.6575 3.72C44.0975 2.664 45.7295 1.88 47.5535 1.368C49.4095 0.823997 51.2975 0.551997 53.2175 0.551997ZM103.611 34.392C103.643 34.968 103.723 35.56 103.851 36.168C104.011 36.776 104.203 37.32 104.427 37.8C104.299 37.928 103.963 38.152 103.419 38.472C102.875 38.792 102.219 39.08 101.451 39.336C100.683 39.592 99.8671 39.688 99.0031 39.624C97.7551 39.528 96.7151 39.016 95.8831 38.088C95.0831 37.128 94.6831 35.912 94.6831 34.44C94.6511 34.12 94.6351 33.784 94.6351 33.432C94.6351 33.08 94.6351 32.632 94.6351 32.088C94.6671 30.68 94.3791 29.464 93.7711 28.44C93.1631 27.384 92.3471 26.584 91.3231 26.04C90.2991 25.464 89.1791 25.176 87.9631 25.176C86.2031 25.176 84.6831 25.704 83.4031 26.76C82.1551 27.816 81.4671 29.352 81.3391 31.368C81.3391 31.656 81.3551 32.2 81.3871 33C81.4511 33.8 81.5311 34.6 81.6271 35.4C81.7231 36.2 81.8191 36.776 81.9151 37.128C81.5631 37.512 81.0351 37.912 80.3311 38.328C79.6271 38.712 78.8911 39.016 78.1231 39.24C77.3551 39.464 76.6831 39.528 76.1071 39.432C75.2431 39.272 74.4111 38.696 73.6111 37.704C72.8111 36.712 72.3951 35.48 72.3631 34.008C72.3631 33.72 72.3471 32.92 72.3151 31.608C72.3151 30.264 72.2991 28.6 72.2671 26.616C72.2671 24.632 72.2511 22.504 72.2191 20.232C72.2191 17.928 72.2031 15.656 72.1711 13.416C72.1711 11.176 72.1551 9.128 72.1231 7.272C72.1231 5.416 72.1231 3.928 72.1231 2.808C72.1231 1.688 72.1231 1.128 72.1231 1.128C72.4751 1.064 73.0831 1.048 73.9471 1.08C74.8431 1.112 75.7871 1.256 76.7791 1.512C77.8671 1.768 78.8591 2.2 79.7551 2.808C80.6511 3.416 81.1631 4.296 81.2911 5.448C81.3551 5.992 81.4031 6.584 81.4351 7.224C81.4671 7.864 81.4831 8.424 81.4831 8.904C81.4831 9.352 81.4831 9.576 81.4831 9.576C81.4831 10.824 81.7711 11.992 82.3471 13.08C82.9231 14.136 83.7071 14.968 84.6991 15.576C85.7231 16.184 86.8271 16.472 88.0111 16.44C89.7071 16.376 91.0191 15.832 91.9471 14.808C92.8751 13.784 93.5631 12.296 94.0111 10.344C94.1391 9.8 94.2351 9.032 94.2991 8.04C94.3631 7.016 94.3951 5.976 94.3951 4.92C94.4271 3.864 94.4431 2.968 94.4431 2.232C94.4431 1.496 94.4431 1.128 94.4431 1.128C94.7951 1.064 95.3711 1.048 96.1711 1.08C96.9711 1.112 97.8191 1.224 98.7151 1.416C99.8351 1.64 100.891 2.072 101.883 2.712C102.907 3.32 103.483 4.232 103.611 5.448C103.675 6.056 103.723 7.032 103.755 8.376C103.787 9.72 103.787 11.288 103.755 13.08C103.755 14.84 103.739 16.728 103.707 18.744C103.675 20.728 103.643 22.712 103.611 24.696C103.579 26.648 103.563 28.472 103.563 30.168C103.563 31.832 103.579 33.24 103.611 34.392Z" fill="white"/>
<path d="M112.488 39.432C111.112 39.176 110.136 38.248 109.56 36.648C109.016 35.048 108.744 33.064 108.744 30.696C108.744 30.408 108.728 29.688 108.696 28.536C108.696 27.384 108.68 25.96 108.648 24.264C108.648 22.536 108.632 20.68 108.6 18.696C108.6 16.712 108.584 14.728 108.552 12.744C108.52 10.76 108.488 8.936 108.456 7.272C108.424 5.576 108.392 4.184 108.36 3.096C108.328 2.008 108.296 1.352 108.264 1.128C108.744 1.032 109.48 1.016 110.472 1.08C111.496 1.112 112.552 1.272 113.64 1.56C114.76 1.816 115.736 2.264 116.568 2.904C117.4 3.512 117.88 4.36 118.008 5.448C118.072 5.96 118.12 6.84 118.152 8.088C118.184 9.304 118.2 10.76 118.2 12.456C118.232 14.12 118.248 15.896 118.248 17.784C118.248 19.672 118.248 21.544 118.248 23.4C118.248 25.224 118.248 26.92 118.248 28.488C118.248 30.024 118.248 31.32 118.248 32.376C118.28 33.4 118.312 34.024 118.344 34.248C118.408 34.92 118.536 35.416 118.728 35.736C118.92 36.024 119.128 36.392 119.352 36.84C118.552 37.704 117.56 38.408 116.376 38.952C115.192 39.496 113.896 39.656 112.488 39.432Z" fill="#FBFBFB"/>
<path d="M150.722 30.888C152.13 32.2 153.346 33.048 154.37 33.432C154.274 33.816 154.066 34.328 153.746 34.968C153.458 35.608 153.074 36.248 152.594 36.888C152.146 37.528 151.618 38.072 151.01 38.52C150.402 38.968 149.73 39.208 148.994 39.24C148.098 39.272 147.282 39.176 146.546 38.952C145.842 38.696 145.09 38.28 144.29 37.704C143.682 37.224 142.962 36.616 142.13 35.88C141.33 35.112 140.546 34.328 139.778 33.528C139.01 32.728 138.402 32.056 137.954 31.512C137.314 30.68 136.626 29.976 135.89 29.4C135.154 28.824 134.338 28.6 133.442 28.728C132.93 28.76 132.61 28.904 132.482 29.16C132.386 29.384 132.29 29.848 132.194 30.552C132.13 31.032 132.114 31.608 132.146 32.28C132.178 32.92 132.226 33.528 132.29 34.104C132.386 34.68 132.434 35.096 132.434 35.352C132.434 35.928 132.546 36.376 132.77 36.696C132.994 36.984 133.218 37.256 133.442 37.512C132.898 37.928 132.05 38.376 130.898 38.856C129.746 39.336 128.466 39.576 127.058 39.576C126.13 39.576 125.394 39.208 124.85 38.472C124.338 37.736 123.97 36.84 123.746 35.784C123.522 34.728 123.394 33.704 123.362 32.712C123.362 32.424 123.346 31.64 123.314 30.36C123.314 29.08 123.298 27.496 123.266 25.608C123.266 23.688 123.266 21.64 123.266 19.464C123.266 17.256 123.25 15.08 123.218 12.936C123.218 10.76 123.202 8.792 123.17 7.032C123.17 5.24 123.17 3.816 123.17 2.76C123.17 1.672 123.17 1.128 123.17 1.128C123.522 1.064 124.13 1.048 124.994 1.08C125.89 1.112 126.818 1.256 127.778 1.512C128.866 1.768 129.858 2.2 130.754 2.808C131.682 3.416 132.21 4.296 132.338 5.448C132.402 6.184 132.434 6.792 132.434 7.272C132.466 7.752 132.482 8.248 132.482 8.76C132.482 10.456 132.898 11.528 133.73 11.976C134.658 12.456 135.922 12.136 137.522 11.016C137.778 10.824 138.226 10.456 138.866 9.912C139.506 9.336 140.242 8.664 141.074 7.896C141.906 7.128 142.77 6.328 143.666 5.496C144.562 4.664 145.378 3.896 146.114 3.192C146.882 2.456 147.506 1.864 147.986 1.416C148.466 0.967998 148.706 0.743998 148.706 0.743998C148.994 0.967999 149.394 1.496 149.906 2.328C150.45 3.16 150.93 4.088 151.346 5.112C151.762 6.136 152.018 7.192 152.114 8.28C152.242 9.336 152.034 10.216 151.49 10.92C151.266 11.208 150.898 11.592 150.386 12.072C149.906 12.552 149.362 13.064 148.754 13.608C148.178 14.12 147.618 14.616 147.074 15.096C146.53 15.544 146.114 15.896 145.826 16.152C145.218 16.664 144.706 17.304 144.29 18.072C143.906 18.808 143.666 19.576 143.57 20.376C143.474 21.176 143.506 21.976 143.666 22.776C143.826 23.576 144.178 24.312 144.722 24.984C145.106 25.432 145.682 26.04 146.45 26.808C147.218 27.544 148.002 28.296 148.802 29.064C149.602 29.8 150.242 30.408 150.722 30.888ZM186.312 5.448C186.377 6.184 186.457 7.384 186.553 9.048C186.681 10.68 186.777 12.568 186.841 14.712C186.905 16.856 186.921 19.064 186.889 21.336C186.889 23.576 186.809 25.704 186.649 27.72C186.521 29.736 186.281 31.416 185.929 32.76C185.353 34.968 183.753 36.664 181.129 37.848C178.505 39.032 175.209 39.624 171.241 39.624C168.585 39.624 166.329 39.128 164.473 38.136C162.617 37.144 161.177 35.784 160.153 34.056C159.161 32.296 158.601 30.28 158.473 28.008C158.409 26.888 158.361 25.464 158.329 23.736C158.297 21.976 158.265 20.088 158.233 18.072C158.233 16.024 158.233 14.008 158.233 12.024C158.233 10.04 158.233 8.232 158.233 6.6C158.265 4.936 158.281 3.608 158.281 2.616C158.281 1.624 158.281 1.128 158.281 1.128C158.633 1.064 159.241 1.048 160.105 1.08C161.001 1.112 161.929 1.256 162.889 1.512C163.977 1.768 164.969 2.2 165.865 2.808C166.793 3.416 167.321 4.296 167.449 5.448C167.545 6.408 167.545 7.848 167.449 9.768C167.385 11.656 167.321 13.832 167.257 16.296C167.225 18.728 167.289 21.256 167.449 23.88C167.481 24.424 167.497 25.048 167.497 25.752C167.497 26.456 167.593 27.144 167.785 27.816C168.009 28.488 168.441 29.048 169.081 29.496C169.753 29.944 170.777 30.168 172.153 30.168C173.529 30.168 174.569 29.976 175.273 29.592C176.009 29.208 176.537 28.68 176.857 28.008C177.177 27.336 177.369 26.552 177.433 25.656C177.529 24.76 177.609 23.8 177.673 22.776C177.737 22.104 177.753 21.112 177.721 19.8C177.721 18.488 177.705 17.016 177.673 15.384C177.641 13.752 177.593 12.104 177.529 10.44C177.465 8.776 177.401 7.24 177.337 5.832C177.273 4.424 177.225 3.288 177.193 2.424C177.161 1.56 177.145 1.128 177.145 1.128C177.497 1.064 178.105 1.048 178.969 1.08C179.865 1.112 180.809 1.256 181.801 1.512C182.889 1.768 183.881 2.216 184.777 2.856C185.673 3.464 186.185 4.328 186.312 5.448ZM217.165 23.784C217.037 23.816 216.845 23.992 216.589 24.312C216.365 24.632 216.205 24.968 216.109 25.32C215.949 25.832 215.997 26.248 216.253 26.568C216.925 27.368 217.789 28.312 218.845 29.4C219.901 30.456 220.957 31.464 222.013 32.424C223.101 33.384 224.029 34.12 224.797 34.632C224.221 36.168 223.309 37.4 222.061 38.328C220.845 39.224 219.485 39.656 217.981 39.624C216.477 39.592 215.005 38.92 213.565 37.608C213.373 37.416 213.005 37 212.461 36.36C211.917 35.688 211.293 34.904 210.589 34.008C209.885 33.112 209.181 32.216 208.477 31.32C207.773 30.424 207.165 29.64 206.653 28.968C206.141 28.296 205.821 27.88 205.693 27.72C205.085 26.92 204.509 26.744 203.965 27.192C203.421 27.64 203.085 28.568 202.957 29.976C202.893 30.808 202.893 31.768 202.957 32.856C203.053 33.912 203.181 34.856 203.341 35.688C203.533 36.52 203.725 37.016 203.917 37.176C203.245 37.688 202.413 38.168 201.421 38.616C200.429 39.064 199.293 39.336 198.013 39.432C197.533 39.464 196.973 39.336 196.333 39.048C195.693 38.76 195.133 38.296 194.653 37.656C194.205 36.984 193.965 36.152 193.933 35.16C193.933 34.904 193.917 34.232 193.885 33.144C193.885 32.056 193.869 30.728 193.837 29.16C193.837 27.56 193.837 25.912 193.837 24.216C193.837 22.52 193.821 20.92 193.789 19.416C193.789 17.912 193.789 16.696 193.789 15.768C193.789 14.84 193.789 14.376 193.789 14.376C193.789 12.488 193.741 10.92 193.645 9.672C193.549 8.392 193.165 7.416 192.493 6.744C191.885 6.136 191.421 5.256 191.101 4.104C190.813 2.952 190.685 1.864 190.717 0.839999C190.845 0.871999 191.229 0.919998 191.869 0.983997C192.509 1.016 193.133 1.064 193.741 1.128C194.157 1.128 194.749 1.128 195.517 1.128C196.317 1.096 197.165 1.064 198.061 1.032C198.957 0.999998 199.789 0.983997 200.557 0.983997C201.325 0.951998 201.901 0.919998 202.285 0.887999C202.573 0.887999 203.101 0.887999 203.869 0.887999C204.669 0.855999 205.597 0.839999 206.653 0.839999C207.709 0.839999 208.781 0.855999 209.869 0.887999C210.957 0.887999 211.965 0.919998 212.893 0.983997C213.821 1.048 214.541 1.128 215.053 1.224C217.165 1.608 218.797 2.312 219.949 3.336C221.101 4.36 221.917 5.592 222.397 7.032C222.909 8.472 223.213 10.04 223.309 11.736C223.373 13.176 223.213 14.68 222.829 16.248C222.445 17.816 221.789 19.272 220.861 20.616C219.933 21.96 218.701 23.016 217.165 23.784ZM203.053 13.464C203.053 14.488 203.293 15.256 203.773 15.768C204.253 16.248 204.701 16.536 205.117 16.632C205.693 16.76 206.429 16.776 207.325 16.68C208.221 16.552 209.117 16.328 210.013 16.008C210.909 15.656 211.661 15.208 212.269 14.664C212.909 14.12 213.229 13.496 213.229 12.792C213.229 11.864 212.845 11.16 212.077 10.68C211.309 10.168 210.333 9.848 209.149 9.72C207.997 9.592 206.845 9.624 205.693 9.816C204.797 9.944 204.125 10.344 203.677 11.016C203.229 11.688 203.021 12.504 203.053 13.464Z" fill="#F8BC17"/>
</svg>
